<svg width="449" height="80" viewBox="0 0 449 80" fill="none" xmlns="http://www.w3.org/2000/svg">
    <path d="M0.5 40C0.5 18.1848 18.1848 0.5 40 0.5C61.8152 0.5 79.5 18.1848 79.5 40C79.5 61.8152 61.8152 79.5 40 79.5C18.1848 79.5 0.5 61.8152 0.5 40Z" fill="#102A27"/>
    <path d="M30.2084 49.7913L49.7917 30.208M49.7917 30.208H30.2084M49.7917 30.208V49.7913" stroke="white" stroke-width="4" stroke-linecap="round"/>
    <path d="M117.253 66V13.6364H125.153V59.1989H148.881V66H117.253ZM172.766 66.7926C168.897 66.7926 165.564 65.9659 162.769 64.3125C159.99 62.642 157.843 60.2983 156.326 57.2812C154.826 54.2472 154.076 50.6932 154.076 46.6193C154.076 42.5966 154.826 39.0511 156.326 35.983C157.843 32.9148 159.956 30.5199 162.667 28.7983C165.394 27.0767 168.581 26.2159 172.229 26.2159C174.445 26.2159 176.593 26.5824 178.672 27.3153C180.752 28.0483 182.618 29.1989 184.272 30.767C185.925 32.3352 187.229 34.3722 188.184 36.8778C189.138 39.3665 189.615 42.392 189.615 45.9545V48.6648H158.397V42.9375H182.124C182.124 40.9261 181.715 39.1449 180.897 37.5938C180.078 36.0256 178.928 34.7898 177.445 33.8864C175.979 32.983 174.257 32.5312 172.28 32.5312C170.132 32.5312 168.257 33.0597 166.655 34.1165C165.07 35.1562 163.843 36.5199 162.973 38.2074C162.121 39.8778 161.695 41.6932 161.695 43.6534V48.1278C161.695 50.7528 162.155 52.9858 163.076 54.8267C164.013 56.6676 165.317 58.0739 166.988 59.0455C168.658 60 170.61 60.4773 172.843 60.4773C174.292 60.4773 175.613 60.2727 176.806 59.8636C177.999 59.4375 179.03 58.8068 179.899 57.9716C180.769 57.1364 181.434 56.1051 181.894 54.8778L189.13 56.1818C188.55 58.3125 187.51 60.179 186.01 61.7812C184.527 63.3665 182.661 64.6023 180.411 65.4886C178.178 66.358 175.63 66.7926 172.766 66.7926ZM214.99 26.7273V32.8636H193.538V26.7273H214.99ZM199.291 17.3182H206.936V54.4688C206.936 55.9517 207.158 57.0682 207.601 57.8182C208.044 58.5511 208.615 59.054 209.314 59.3267C210.03 59.5824 210.805 59.7102 211.641 59.7102C212.254 59.7102 212.791 59.6676 213.251 59.5824C213.712 59.4972 214.07 59.429 214.325 59.3778L215.706 65.6932C215.263 65.8636 214.632 66.0341 213.814 66.2045C212.996 66.392 211.973 66.4943 210.746 66.5114C208.734 66.5455 206.859 66.1875 205.121 65.4375C203.382 64.6875 201.976 63.5284 200.902 61.9602C199.828 60.392 199.291 58.4233 199.291 56.054V17.3182ZM230.546 13.6364V18.5455C230.546 19.9943 230.274 21.5199 229.728 23.1222C229.2 24.7074 228.45 26.233 227.478 27.6989C226.507 29.1648 225.365 30.4261 224.052 31.483L220.268 28.7727C221.274 27.3068 222.143 25.7472 222.876 24.0938C223.626 22.4403 224.001 20.6165 224.001 18.6222V13.6364H230.546ZM260.964 36.3153L254.035 37.5426C253.746 36.6562 253.285 35.8125 252.655 35.0114C252.041 34.2102 251.206 33.554 250.149 33.0426C249.092 32.5312 247.771 32.2756 246.186 32.2756C244.021 32.2756 242.214 32.7614 240.766 33.733C239.317 34.6875 238.592 35.9233 238.592 37.4403C238.592 38.7528 239.078 39.8097 240.05 40.6108C241.021 41.4119 242.589 42.0682 244.754 42.5795L250.993 44.0114C254.606 44.8466 257.3 46.1335 259.072 47.8722C260.845 49.6108 261.731 51.8693 261.731 54.6477C261.731 57 261.05 59.0966 259.686 60.9375C258.339 62.7614 256.456 64.1932 254.035 65.233C251.632 66.2727 248.845 66.7926 245.675 66.7926C241.277 66.7926 237.689 65.8551 234.91 63.9801C232.132 62.0881 230.427 59.4034 229.797 55.9261L237.186 54.8011C237.646 56.7273 238.592 58.1847 240.024 59.1733C241.456 60.1449 243.322 60.6307 245.624 60.6307C248.129 60.6307 250.132 60.1108 251.632 59.071C253.132 58.0142 253.882 56.7273 253.882 55.2102C253.882 53.983 253.422 52.9517 252.501 52.1165C251.598 51.2812 250.209 50.6506 248.334 50.2244L241.686 48.767C238.021 47.9318 235.311 46.6023 233.555 44.7784C231.817 42.9545 230.947 40.6449 230.947 37.8494C230.947 35.5312 231.595 33.5028 232.891 31.7642C234.186 30.0256 235.976 28.6705 238.26 27.6989C240.544 26.7102 243.16 26.2159 246.109 26.2159C250.354 26.2159 253.695 27.1364 256.132 28.9773C258.57 30.8011 260.18 33.2472 260.964 36.3153ZM284.343 20.4375V13.6364H324.869V20.4375H308.53V66H300.655V20.4375H284.343ZM337.855 66.8693C335.367 66.8693 333.117 66.4091 331.105 65.4886C329.094 64.5511 327.5 63.196 326.324 61.4233C325.165 59.6506 324.585 57.4773 324.585 54.9034C324.585 52.6875 325.012 50.8636 325.864 49.4318C326.716 48 327.867 46.8665 329.316 46.0312C330.764 45.196 332.384 44.5653 334.174 44.1392C335.963 43.7131 337.787 43.3892 339.645 43.1676C341.997 42.8949 343.907 42.6733 345.372 42.5028C346.838 42.3153 347.904 42.017 348.568 41.608C349.233 41.1989 349.566 40.5341 349.566 39.6136V39.4347C349.566 37.2017 348.935 35.4716 347.674 34.2443C346.429 33.017 344.571 32.4034 342.1 32.4034C339.526 32.4034 337.497 32.9744 336.014 34.1165C334.549 35.2415 333.534 36.4943 332.972 37.875L325.787 36.2386C326.639 33.8523 327.884 31.9261 329.52 30.4602C331.174 28.9773 333.074 27.9034 335.222 27.2386C337.37 26.5568 339.628 26.2159 341.997 26.2159C343.566 26.2159 345.228 26.4034 346.983 26.7784C348.756 27.1364 350.409 27.8011 351.943 28.7727C353.495 29.7443 354.764 31.1335 355.753 32.9403C356.742 34.7301 357.236 37.0568 357.236 39.9205V66H349.77V60.6307H349.463C348.969 61.6193 348.228 62.5909 347.239 63.5455C346.25 64.5 344.98 65.2926 343.429 65.9233C341.878 66.554 340.02 66.8693 337.855 66.8693ZM339.517 60.733C341.631 60.733 343.438 60.3153 344.938 59.4801C346.455 58.6449 347.605 57.554 348.389 56.2074C349.191 54.8437 349.591 53.3864 349.591 51.8352V46.7727C349.318 47.0455 348.79 47.3011 348.006 47.5398C347.239 47.7614 346.361 47.9574 345.372 48.1278C344.384 48.2812 343.421 48.4261 342.483 48.5625C341.546 48.6818 340.762 48.7841 340.131 48.8693C338.648 49.0568 337.293 49.3722 336.066 49.8153C334.855 50.2585 333.884 50.8977 333.151 51.733C332.435 52.5511 332.077 53.642 332.077 55.0057C332.077 56.8977 332.776 58.3295 334.174 59.3011C335.571 60.2557 337.353 60.733 339.517 60.733ZM373.623 13.6364V66H365.979V13.6364H373.623ZM389.5 52.679L389.448 43.3466H390.778L406.426 26.7273H415.579L397.732 45.6477H396.531L389.5 52.679ZM382.468 66V13.6364H390.113V66H382.468ZM407.269 66L393.207 47.3352L398.474 41.9915L416.653 66H407.269Z" fill="#020504"/>
</svg>
